<?xml version="1.0" encoding="UTF-8" standalone="no"?>
<svg width="200px" height="200px" viewBox="0 0 200 200" version="1.1" xmlns="http://www.w3.org/2000/svg" xmlns:xlink="http://www.w3.org/1999/xlink" xmlns:sketch="http://www.bohemiancoding.com/sketch/ns">
    <title>Slice 1</title>
    <description>Created with Sketch (http://www.bohemiancoding.com/sketch)</description>
    <defs></defs>
    <g id="Page 1" fill="#D8D8D8" fill-rule="evenodd">
        <g id="Slice 1" fill="#000000">
            <g id="Page 1" fill="#D8D8D8">
                <path d="M26.3889581,167.82399 C9.9537298,149.999869 0,126.157214 0,99.999738 L0,95.370096 C41.898258,94.6756497 76.1576071,90.0460079 104.398422,81.2496886 C107.639171,87.731187 110.416956,93.9812034 113.194741,100.462702 C110.648438,101.157148 108.102135,101.851594 105.555832,102.777523 C74.0742683,113.888663 47.4538282,135.647979 26.3889581,167.82399 L26.3889581,167.82399 Z M198.843114,115.046073 C194.676436,143.51837 178.241208,168.055472 155.092999,183.33329 C151.157804,161.805455 145.370752,137.268354 135.648504,111.110878 C157.639302,107.870129 179.398619,110.18495 198.843114,115.046073 L198.843114,115.046073 Z M97.4539593,67.5922453 C71.5279654,75.2311543 40.0464013,79.3978319 2.0833388,80.0922781 C8.3333552,48.6107141 29.6297073,22.4532381 58.1020042,9.258759 C74.0742683,28.7032545 87.0372653,48.379232 97.4539593,67.5922453 L97.4539593,67.5922453 Z M113.889188,62.0366752 C103.472494,42.5921798 90.7409787,22.6847202 75.0001967,3.24022472 C83.1020698,1.15688592 91.435425,-0.00052452 100.000262,-0.00052452 C125.694774,-0.00052452 149.074465,9.7217232 166.667104,25.6939873 C153.241143,41.2032872 135.879986,53.2403558 113.889188,62.0366752 L113.889188,62.0366752 Z M139.352217,191.898127 C127.083667,197.222215 113.889188,200 100.000262,200 C76.6205713,200 54.861255,191.898127 37.9630625,178.472166 C61.3427535,141.666514 89.8150504,122.684982 118.750311,114.583109 C129.398488,142.823924 135.417022,169.212882 139.352217,191.898127 L139.352217,191.898127 Z M200.000525,99.536774 C175.231941,93.9812034 151.85225,92.823793 130.092934,96.527506 C127.315149,89.5830438 124.074399,82.6385811 120.83365,75.4626364 C143.981859,66.2033528 162.731908,53.2403558 177.31528,36.5736455 C191.435687,53.70332 199.769042,75.6941184 200.000525,99.536774 L200.000525,99.536774 Z M200.000525,99.536774" id="dribbble" fill="#FFFFFF"></path>
            </g>
        </g>
    </g>
</svg>