<?xml version="1.0" encoding="UTF-8" standalone="no"?>
<svg width="200px" height="200px" viewBox="0 0 200 200" version="1.1" xmlns="http://www.w3.org/2000/svg" xmlns:xlink="http://www.w3.org/1999/xlink" xmlns:sketch="http://www.bohemiancoding.com/sketch/ns">
    <title>Slice 1</title>
    <description>Created with Sketch (http://www.bohemiancoding.com/sketch)</description>
    <defs></defs>
    <g id="Page 1" fill="#D8D8D8" fill-rule="evenodd">
        <g id="Slice 1" fill="#000000">
            <g id="Page 1" fill="#D8D8D8">
                <path d="M137.500361,49.9996066 L137.500361,28.7032545 C137.500361,28.7032545 131.250344,34.0273425 113.194741,35.416235 C107.870653,31.9440037 101.620637,30.3236291 94.9076563,30.3236291 C76.3890892,30.3236291 61.3427535,43.9810723 61.3427535,64.5829782 C61.3427535,78.0089393 67.8242519,88.6571154 77.5464997,94.2126855 C70.3705549,100.23122 66.6668415,110.416432 76.6205713,120.833126 C65.7409132,125.69425 58.3334863,134.722051 58.3334863,145.601709 C58.3334863,162.499902 76.1576071,174.768452 97.9169235,174.768452 C119.67624,174.768452 137.500361,162.731384 137.500361,145.601709 C137.500361,129.397963 120.370686,116.89793 99.074334,116.434966 C92.3613533,111.573842 91.2039429,106.712718 96.0650668,98.610845 C114.12067,98.147881 128.241077,84.7219199 128.241077,64.5829782 C128.241077,59.2588902 127.315149,54.3977663 125.463292,49.9996066 L137.500361,49.9996066 Z M100.000262,-0.00052452 C155.324481,-0.00052452 200.000525,44.6755186 200.000525,99.999738 C200.000525,155.323957 155.324481,200 100.000262,200 C44.6760431,200 0,155.323957 0,99.999738 C0,44.6755186 44.6760431,-0.00052452 100.000262,-0.00052452 L100.000262,-0.00052452 Z M79.1668743,145.833191 C79.1668743,140.046139 86.5743011,134.953533 97.9169235,134.953533 C109.259546,134.953533 116.666973,140.046139 116.666973,145.833191 C116.666973,151.851726 109.259546,156.712849 97.9169235,156.712849 C86.5743011,156.712849 79.1668743,151.851726 79.1668743,145.833191 L79.1668743,145.833191 Z M94.9076563,46.9903395 C101.620637,46.9903395 106.944725,53.0088738 106.944725,63.6570498 C106.944725,74.3052259 101.620637,80.5552423 94.9076563,80.5552423 C88.1946757,80.5552423 82.6391056,74.3052259 82.6391056,63.6570498 C82.6391056,53.0088738 88.1946757,46.9903395 94.9076563,46.9903395 L94.9076563,46.9903395 Z M94.9076563,46.9903395" id="github" fill="#FFFFFF"></path>
            </g>
        </g>
    </g>
</svg>