<?xml version="1.0" encoding="UTF-8" standalone="no"?>
<svg width="107px" height="95px" viewBox="0 0 107 95" version="1.1" xmlns="http://www.w3.org/2000/svg" xmlns:xlink="http://www.w3.org/1999/xlink" xmlns:sketch="http://www.bohemiancoding.com/sketch/ns">
    <title>Slice 1</title>
    <description>Created with Sketch (http://www.bohemiancoding.com/sketch)</description>
    <defs></defs>
    <g id="Page 1" fill="#D8D8D8" fill-rule="evenodd">
        <path d="M92.1151984,56.613892 C109.819342,38.9097489 110.933588,20.5865798 99.6673154,9.32030691 C88.2772373,-2.06977118 69.9540682,-2.06977118 58.6877953,9.32030691 C56.583107,11.4249953 54.8498342,13.777294 53.4879771,16.2533979 C52.1261199,13.777294 50.3928471,11.4249953 48.2881588,9.32030691 C37.0218859,-1.94596598 18.6987168,-1.94596598 7.4324439,9.32030691 C-3.95763419,20.5865798 -2.84338742,38.9097489 14.8607557,56.613892 L51.8785095,93.755451 C52.2499251,94.1268666 52.8689511,94.374477 53.4879771,94.374477 C54.107003,94.374477 54.6022238,94.1268666 55.0974446,93.755451 C55.0974446,93.755451 54.6022238,94.1268666 55.0974446,93.755451 L92.1151984,56.613892 L92.1151984,56.613892 Z M92.1151984,56.613892" id="heart" fill="#9B9B9B"></path>
    </g>
</svg>