<?xml version="1.0" encoding="UTF-8" standalone="no"?>
<svg width="96px" height="96px" viewBox="0 0 96 96" version="1.1" xmlns="http://www.w3.org/2000/svg" xmlns:xlink="http://www.w3.org/1999/xlink" xmlns:sketch="http://www.bohemiancoding.com/sketch/ns">
    <title>Slice 1</title>
    <description>Created with Sketch (http://www.bohemiancoding.com/sketch)</description>
    <defs></defs>
    <g id="Page 1" stroke="none" stroke-width="1" fill="none" fill-rule="evenodd">
        <path d="M74.7804759,57.9832224 C75.2247918,52.8735898 74.558318,47.8750362 72.7810545,43.0986404 L79.8901086,35.8785074 C85.3329781,30.4356378 85.3329781,21.5493202 79.8901086,16.1064507 C74.447239,10.6635811 65.5609214,10.6635811 60.1180519,16.1064507 L45.1223909,30.9910327 C39.6795213,36.5449812 39.6795213,45.3202198 45.1223909,50.8741684 C47.5661282,53.2068267 47.5661282,56.9835117 45.1223909,59.3161701 C42.7897325,61.6488285 39.0130475,61.6488285 36.6803892,59.3161701 C26.5722029,49.0969048 26.5722029,32.6572172 36.6803892,22.549031 L51.5649712,7.66444894 C61.7842364,-2.55481631 78.223924,-2.55481631 88.3321103,7.66444894 C98.5513756,17.7726352 98.5513756,34.2123228 88.3321103,44.4315881 Z M44.3448381,88.4188603 C34.2366518,98.5270466 17.7969642,98.5270466 7.57769896,88.4188603 C-2.53048733,78.199595 -2.53048733,61.7599074 7.57769896,51.6517211 L21.2404123,37.9890078 C20.7960964,43.0986404 21.4625702,48.2082731 23.2398338,52.9846688 L16.1307797,60.0937229 C10.6879101,65.5365924 10.6879101,74.42291 16.1307797,79.8657796 C21.5736492,85.3086491 30.4599668,85.3086491 35.9028364,79.8657796 L50.7874184,64.9811976 C56.3413669,59.538328 56.3413669,50.6520104 50.7874184,45.2091409 C48.45476,42.8764825 48.45476,38.9887185 50.7874184,36.6560602 C53.1200767,34.3234018 57.0078407,34.3234018 59.3404991,36.6560602 C69.4486854,46.8753254 69.4486854,63.315013 59.3404991,73.4231993 Z M44.3448381,88.4188603" id="Link" fill="#9B9B9B"></path>
    </g>
</svg>