<?xml version="1.0" encoding="UTF-8" standalone="no"?>
<svg width="117px" height="107px" viewBox="0 0 117 107" version="1.1" xmlns="http://www.w3.org/2000/svg" xmlns:xlink="http://www.w3.org/1999/xlink" xmlns:sketch="http://www.bohemiancoding.com/sketch/ns">
    <title>Slice 2</title>
    <description>Created with Sketch (http://www.bohemiancoding.com/sketch)</description>
    <defs></defs>
    <g id="Page 1" fill="#D8D8D8" fill-rule="evenodd">
        <path d="M79,81.5969219 L93,70.7424015 L93,87.7575956 C93,96.4118754 86.6481481,103.599328 79,103.599328 L16,103.599328 C8.35185185,103.599328 2,96.4118754 2,87.7575956 L2,24.3906656 C2,15.7363858 8.35185185,8.54893312 16,8.54893312 L55.6666667,8.54893312 L55.6666667,15.0029723 C47.2407407,16.4697994 40.1111111,19.5501362 34.1481481,24.3906656 L16,24.3906656 L16,87.7575956 L79,87.7575956 Z M112.962963,38.0321575 C113.611111,38.6188883 114,39.3523019 114,40.2323981 C114,41.1124944 113.611111,41.9925906 112.962963,42.4326387 L68.6296296,76.7563925 C68.2407407,77.0497579 67.8518519,77.1964406 67.3333333,77.1964406 C66.9444444,77.1964406 66.5555556,77.0497579 66.2962963,76.9030752 C65.5185185,76.4630271 65,75.5829308 65,74.5561519 L65,55.9274479 C36.4814815,56.6608615 29.7407407,67.95543 29.6111111,67.95543 C29.2222222,68.8355263 28.4444444,69.2755744 27.6666667,69.2755744 L27.1481481,69.2755744 C26.1111111,68.982209 25.462963,67.95543 25.3333333,66.7819683 C25.3333333,66.1952375 24.4259259,50.0601396 34.6666667,37.8854748 C41.537037,29.5245604 51.7777778,24.9773965 65,24.5373483 L65,5.90864436 C65,4.88186541 65.5185185,4.00176916 66.2962963,3.56172103 C66.9444444,3.12167291 67.9814815,3.12167291 68.6296296,3.70840374 Z M112.962963,38.0321575" id="share" fill="#9B9B9B"></path>
    </g>
</svg>