<?xml version="1.0" encoding="UTF-8" standalone="no"?>
<svg width="88px" height="100px" viewBox="0 0 88 100" version="1.1" xmlns="http://www.w3.org/2000/svg" xmlns:xlink="http://www.w3.org/1999/xlink" xmlns:sketch="http://www.bohemiancoding.com/sketch/ns">
    <title>Slice 1</title>
    <description>Created with Sketch (http://www.bohemiancoding.com/sketch)</description>
    <defs></defs>
    <g id="Page 1" fill="#D8D8D8" fill-rule="evenodd">
        <g id="Slice 1" fill="#000000">
            <g id="Page 1" fill="#D8D8D8">
                <path d="M78.4,76.8 C81.2,78.4 84.8,77.6 86.6,74.6 C88.4,71.6 87.2,68 84.4,66.4 L80.4,64.2 L83,63 C86.6,61.2 87.8,57.6 86,54.6 C84.4,51.6 80.4,50.8 77.4,52.6 L68.4,57.8 L54,50 L68.6,42.2 L77.4,47.2 C80.4,49 84.4,48.2 86,45.2 C87.8,42.2 86.6,38.6 83,36.8 L80.6,35.8 L84.4,33.6 C87.2,31.8 88.4,28.4 86.6,25.4 C84.8,22.4 81.2,21.4 78.4,23.2 L74.4,25.6 L74.8,22.4 C75.2,18.4 72.2,15.4 68.8,15.4 C65.4,15.4 62.8,18.2 62.8,21.8 L62.8,32.8 L49.2,41 L49.6,24.6 L58,19.8 C62.2,17.4 62.6,14 61.2,11.2 C59.2,8 55.4,7 51.6,10 L49.8,11.4 L50,6.8 C50,3.2 47.4,0.8 44,0.8 C40.6,0.8 38,3.2 38,6.8 L38,11.4 L36.4,10 C32.6,7 28.8,8 26.8,11.2 C25.4,14 25.8,17.4 30,19.8 L38.2,24.4 L38.6,41 L25,32.8 L25,21.8 C25,18.2 22.4,15.4 19,15.4 C15.6,15.4 12.6,18.4 13,22.4 L13.2,25.6 L9.6,23.2 C6.8,21.4 3,22.4 1.4,25.4 C-0.4,28.4 0.8,32 3.6,33.6 L7.2,35.6 L4.8,36.8 C1.2,38.6 -2.22044605e-16,42.2 1.8,45.2 C3.4,48.2 7.4,49 10.4,47.2 L19.2,42 L33.8,50 L19.2,58 L10.4,52.6 C7.4,50.8 3.4,51.6 1.8,54.6 C-2.22044605e-16,57.6 1.2,61.2 4.8,63 L7.4,64.4 L3.6,66.4 C0.8,68 -0.4,71.6 1.4,74.6 C3,77.6 6.8,78.6 9.6,76.8 L13.2,74.6 L13,77.4 C12.6,81.4 15.6,84.4 19,84.4 C22.4,84.4 25,81.6 25,78 L25,67.4 L38.6,59 L38.2,75.4 L30,80 C25.8,82.4 25.4,85.8 26.8,88.6 C28.8,91.8 32.6,92.8 36.4,89.8 L38,88.6 L38,93.2 C38,96.8 40.6,99.2 44,99.2 C47.4,99.2 50,96.8 50,93.2 L49.8,88.6 L51.6,89.8 C55.4,92.8 59.2,91.8 61.2,88.6 C62.6,85.8 62.2,82.4 58,80 L49.6,75.4 L49.2,59 L62.8,67.4 L62.8,78 C62.8,81.6 65.4,84.4 68.8,84.4 C72.2,84.4 75.2,81.4 74.8,77.4 L74.4,74.4 L78.4,76.8 L78.4,76.8 Z M78.4,76.8" id="V" fill="#34464F"></path>
            </g>
        </g>
    </g>
</svg>