<?xml version="1.0" encoding="UTF-8" standalone="no"?>
<svg width="206px" height="205px" viewBox="0 0 206 205" version="1.1" xmlns="http://www.w3.org/2000/svg" xmlns:xlink="http://www.w3.org/1999/xlink" xmlns:sketch="http://www.bohemiancoding.com/sketch/ns">
    <title>Slice 1</title>
    <description>Created with Sketch (http://www.bohemiancoding.com/sketch)</description>
    <defs></defs>
    <g id="Page 1" fill="#D8D8D8" fill-rule="evenodd">
        <path d="M102.000262,1.99947548 C157.324481,1.99947548 202.000525,46.6755186 202.000525,101.999738 C202.000525,157.323957 157.324481,202 102.000262,202 C46.6760431,202 2,157.323957 2,101.999738 C2,46.6755186 46.6760431,1.99947548 102.000262,1.99947548 Z M162.880052,80.0089393 C168.435622,76.0737438 173.065263,70.9811379 177.000459,65.4255677 C171.907853,67.5089065 166.352283,69.1292812 160.565231,69.8237274 C166.583765,66.3514961 170.750443,60.795926 172.833781,54.0829454 C167.278211,57.3236946 161.491159,59.6385155 155.009661,61.0274081 C149.917055,55.4718379 142.509628,51.9996066 134.407755,51.9996066 C118.666973,51.9996066 106.16694,64.7311215 106.16694,80.4719035 C106.16694,82.5552423 106.398422,84.8700632 106.861386,86.953402 C83.2502131,85.7959915 62.185343,74.4533692 48.0649356,57.0922126 C45.7501147,61.4903722 44.3612222,66.3514961 44.3612222,71.444102 C44.3612222,81.3978319 49.2223461,89.9626691 56.861255,95.0552751 C52.2316132,95.0552751 47.8334535,93.6663826 44.1297401,91.5830438 L44.1297401,91.8145258 C44.1297401,105.703451 53.8519878,117.046073 66.8149848,119.823859 C64.5001639,120.518305 61.9538609,120.749787 59.407558,120.749787 C57.5557013,120.749787 55.7038445,120.518305 54.0834699,120.286823 C57.5557013,131.629445 68.2038773,139.268354 80.472428,139.499836 C70.7501803,147.138745 58.7131117,152.462833 45.2871506,152.462833 C42.9723297,152.462833 40.6575088,152.231351 38.57417,151.999869 C51.0742028,160.101742 66.1205385,164.499902 82.0928026,164.499902 C134.407755,164.499902 162.880052,121.212751 162.880052,83.7126527 Z M162.880052,80.0089393" id="dribbble" fill="#FFFFFF"></path>
    </g>
</svg>